<?xml version="1.0" encoding="UTF-8" standalone="no"?>
<svg xmlns="http://www.w3.org/2000/svg" version="1.1">
<svg width="800.0" height="300" font-family="sans-serif">
  <svg id="x_axis">
    <path d="M100,100 L700.0,100" style="stroke:gray;stroke-width:5"/>
  </svg>
  <svg id="breakpoint_utility">
    <path 
    d="M700.0,100 L650.0,30 L750.0,30 Z" style="fill:orangered;stroke:gray;stroke-width:5;fill-opacity:0.8;opacity:0.8;">
</path>
    <circle cx="700.0" cy="100" r="7"/>
    <text x="700.0" y="120" transform="rotate(90 695.0,122)">15 utility</text>
  </svg>
  <svg id="breakpoint_differentiation">
    <path 
    d="M142.85714285714286,100 L92.85714285714286,30 L192.85714285714286,30 Z" style="fill:lime;stroke:gray;stroke-width:5;fill-opacity:0.8;opacity:0.8;">
</path>
    <circle cx="142.85714285714286" cy="100" r="7"/>
    <text 
    x="142.85714285714286" y="120" transform="rotate(90 137.85714285714286,122)">
      2 differentiation
</text>
  </svg>
  <svg id="breakpoint_saturation">
    <path 
    d="M100.0,100 L50.0,30 L150.0,30 Z" style="fill:dodgerblue;stroke:gray;stroke-width:5;fill-opacity:0.8;opacity:0.8;">
</path>
    <circle cx="100.0" cy="100" r="7"/>
    <text x="100.0" y="120" transform="rotate(90 95.0,122)">1 saturation</text>
  </svg>
  <svg id="barrier_first">
    <path 
    d="M213.57142857142858,100 L213.57142857142858,10 L243.57142857142858,10 L243.57142857142858,100 Z" style="fill:rgb(255,220,0);stroke:gray;stroke-width:5;fill-opacity:0.8;opacity:0.8;">
</path>
    <text x="218.57142857142858" y="120">4 Barrier first</text>
  </svg>
  <svg id="barrier_second">
    <path 
    d="M170.71428571428572,100 L170.71428571428572,10 L200.71428571428572,10 L200.71428571428572,100 Z" style="fill:rgb(255,220,0);stroke:gray;stroke-width:5;fill-opacity:0.8;opacity:0.8;">
</path>
    <text x="175.71428571428572" y="120">3 Barrier second</text>
  </svg>
  <svg id="Target_basic">
    <circle 
    cx="271.42857142857144" cy="100" r="10" style="stroke:red;fill:red;fill-opacity:0.8;opacity:0.8;">
</circle>
    <text 
    x="271.42857142857144" y="120" transform="rotate(-30.0 211.42857142857144,100)" font-weight="bold">
      5 Target basic
</text>
  </svg>
  <svg id="Target_strech">
    <circle 
    cx="185.71428571428572" cy="100" r="10" style="stroke:red;fill:red;fill-opacity:0.8;opacity:0.8;">
</circle>
    <text 
    x="185.71428571428572" y="120" transform="rotate(-30.0 125.71428571428572,100)" font-weight="bold">
      3 Target strech
</text>
  </svg>
  <svg id="Ref_competitorA">
    <circle 
    cx="185.71428571428572" cy="100" r="10" style="stroke:rgb(80,45,185);fill:rgb(80,45,185);fill-opacity:0.8;opacity:0.8;">
</circle>
    <text 
    x="185.71428571428572" y="120" transform="rotate(-20.0 125.71428571428572,100)" font-weight="bold">
      3 Ref competitorA
</text>
  </svg>
  <svg id="Ref_competitorB">
    <circle 
    cx="271.42857142857144" cy="100" r="10" style="stroke:rgb(80,45,185);fill:rgb(80,45,185);fill-opacity:0.8;opacity:0.8;">
</circle>
    <text 
    x="271.42857142857144" y="120" transform="rotate(-20.0 211.42857142857144,100)" font-weight="bold">
      5 Ref competitorB
</text>
  </svg>
</svg>
</svg>